<?xml version="1.0" encoding="UTF-8" standalone="no"?>
<!DOCTYPE svg PUBLIC "-//W3C//DTD SVG 1.1//EN"
 "http://www.w3.org/Graphics/SVG/1.1/DTD/svg11.dtd">
<!-- Generated by graphviz version 2.36.0 (20140111.2315)
 -->
<!-- Title: G Pages: 1 -->
<svg width="444pt" height="204pt"
 viewBox="0.00 0.00 444.00 204.00" xmlns="http://www.w3.org/2000/svg" xmlns:xlink="http://www.w3.org/1999/xlink">
<g id="graph0" class="graph" transform="scale(1 1) rotate(0) translate(4 200)">
<title>G</title>
<polygon fill="white" stroke="none" points="-4,4 -4,-200 440,-200 440,4 -4,4"/>
<g id="clust1" class="cluster"><title>cluster_Global</title>
<path fill="none" stroke="gray" d="M20,-8C20,-8 416,-8 416,-8 422,-8 428,-14 428,-20 428,-20 428,-176 428,-176 428,-182 422,-188 416,-188 416,-188 20,-188 20,-188 14,-188 8,-182 8,-176 8,-176 8,-20 8,-20 8,-14 14,-8 20,-8"/>
<text text-anchor="middle" x="218" y="-175.2" font-family="Times,serif" font-size="11.00" fill="gray">Global</text>
</g>
<!-- \\RobotFactory -->
<g id="node1" class="node"><title>\\RobotFactory</title>
<polygon fill="none" stroke="black" points="420,-160 322,-160 322,-124 420,-124 420,-160"/>
<text text-anchor="middle" x="371" y="-139.2" font-family="Courier,monospace" font-size="11.00">RobotFactory</text>
</g>
<!-- \\DalekRobot -->
<g id="node2" class="node"><title>\\DalekRobot</title>
<polygon fill="none" stroke="black" points="413,-106 329,-106 329,-70 413,-70 413,-106"/>
<text text-anchor="middle" x="371" y="-85.2" font-family="Courier,monospace" font-size="11.00">DalekRobot</text>
</g>
<!-- \\IDalekRobot -->
<g id="node6" class="node"><title>\\IDalekRobot</title>
<polygon fill="none" stroke="black" points="243.5,-160 152.5,-160 152.5,-124 243.5,-124 243.5,-160"/>
<text text-anchor="middle" x="198" y="-139.2" font-family="Courier,monospace" font-size="11.00">IDalekRobot</text>
</g>
<!-- \\DalekRobot&#45;&gt;\\IDalekRobot -->
<g id="edge1" class="edge"><title>\\DalekRobot&#45;&gt;\\IDalekRobot</title>
<path fill="none" stroke="black" stroke-dasharray="1,5" d="M328.606,-101.072C306.018,-108.205 277.776,-117.123 253.425,-124.813"/>
<polygon fill="none" stroke="black" points="252.089,-121.565 243.607,-127.913 254.197,-128.24 252.089,-121.565"/>
</g>
<!-- \\RoseTyler -->
<g id="node3" class="node"><title>\\RoseTyler</title>
<polygon fill="none" stroke="black" points="409.5,-52 332.5,-52 332.5,-16 409.5,-16 409.5,-52"/>
<text text-anchor="middle" x="371" y="-31.2" font-family="Courier,monospace" font-size="11.00">RoseTyler</text>
</g>
<!-- \\ICompanion -->
<g id="node7" class="node"><title>\\ICompanion</title>
<polygon fill="none" stroke="black" points="240,-106 156,-106 156,-70 240,-70 240,-106"/>
<text text-anchor="middle" x="198" y="-85.2" font-family="Courier,monospace" font-size="11.00">ICompanion</text>
</g>
<!-- \\RoseTyler&#45;&gt;\\ICompanion -->
<g id="edge2" class="edge"><title>\\RoseTyler&#45;&gt;\\ICompanion</title>
<path fill="none" stroke="black" d="M332.473,-45.8505C308.238,-53.5037 276.4,-63.5579 249.897,-71.9271"/>
<polygon fill="none" stroke="black" points="248.51,-68.6947 240.028,-75.0437 250.618,-75.3698 248.51,-68.6947"/>
</g>
<!-- \\CybermanRobot -->
<g id="node4" class="node"><title>\\CybermanRobot</title>
<polygon fill="none" stroke="black" points="250,-52 146,-52 146,-16 250,-16 250,-52"/>
<text text-anchor="middle" x="198" y="-31.2" font-family="Courier,monospace" font-size="11.00">CybermanRobot</text>
</g>
<!-- \\IRobot -->
<g id="node5" class="node"><title>\\IRobot</title>
<polygon fill="none" stroke="black" points="73.5,-106 16.5,-106 16.5,-70 73.5,-70 73.5,-106"/>
<text text-anchor="middle" x="45" y="-85.2" font-family="Courier,monospace" font-size="11.00">IRobot</text>
</g>
<!-- \\CybermanRobot&#45;&gt;\\IRobot -->
<g id="edge3" class="edge"><title>\\CybermanRobot&#45;&gt;\\IRobot</title>
<path fill="none" stroke="black" stroke-dasharray="1,5" d="M146.299,-52.1314C125.724,-59.4893 102.386,-67.8356 83.4016,-74.6246"/>
<polygon fill="none" stroke="black" points="82.1463,-71.3564 73.9089,-78.0193 84.5035,-77.9476 82.1463,-71.3564"/>
</g>
<!-- \\IDalekRobot&#45;&gt;\\IRobot -->
<g id="edge4" class="edge"><title>\\IDalekRobot&#45;&gt;\\IRobot</title>
<path fill="none" stroke="black" d="M152.104,-125.944C130.189,-118.107 104.134,-108.79 83.3277,-101.349"/>
<polygon fill="none" stroke="black" points="84.469,-98.0401 73.8745,-97.9683 82.1119,-104.631 84.469,-98.0401"/>
</g>
</g>
</svg>
