<?xml version="1.0" encoding="UTF-8" standalone="no"?>
<!DOCTYPE svg PUBLIC "-//W3C//DTD SVG 1.1//EN"
 "http://www.w3.org/Graphics/SVG/1.1/DTD/svg11.dtd">
<!-- Generated by graphviz version 2.36.0 (20140111.2315)
 -->
<!-- Title: G Pages: 1 -->
<svg width="444pt" height="150pt"
 viewBox="0.00 0.00 444.00 150.00" xmlns="http://www.w3.org/2000/svg" xmlns:xlink="http://www.w3.org/1999/xlink">
<g id="graph0" class="graph" transform="scale(1 1) rotate(0) translate(4 146)">
<title>G</title>
<polygon fill="white" stroke="none" points="-4,4 -4,-146 440,-146 440,4 -4,4"/>
<g id="clust1" class="cluster"><title>cluster_Global</title>
<path fill="none" stroke="gray" d="M20,-8C20,-8 416,-8 416,-8 422,-8 428,-14 428,-20 428,-20 428,-122 428,-122 428,-128 422,-134 416,-134 416,-134 20,-134 20,-134 14,-134 8,-128 8,-122 8,-122 8,-20 8,-20 8,-14 14,-8 20,-8"/>
<text text-anchor="middle" x="218" y="-121.2" font-family="Times,serif" font-size="11.00" fill="gray">Global</text>
</g>
<!-- \\CybermanRobot -->
<g id="node1" class="node"><title>\\CybermanRobot</title>
<polygon fill="none" stroke="black" points="250,-106 146,-106 146,-70 250,-70 250,-106"/>
<text text-anchor="middle" x="198" y="-85.2" font-family="Courier,monospace" font-size="11.00">CybermanRobot</text>
</g>
<!-- \\IRobot -->
<g id="node4" class="node"><title>\\IRobot</title>
<polygon fill="none" stroke="black" points="73.5,-79 16.5,-79 16.5,-43 73.5,-43 73.5,-79"/>
<text text-anchor="middle" x="45" y="-58.2" font-family="Courier,monospace" font-size="11.00">IRobot</text>
</g>
<!-- \\CybermanRobot&#45;&gt;\\IRobot -->
<g id="edge1" class="edge"><title>\\CybermanRobot&#45;&gt;\\IRobot</title>
<path fill="none" stroke="black" stroke-dasharray="1,5" d="M145.878,-78.859C125.521,-75.2189 102.514,-71.1051 83.7168,-67.7441"/>
<polygon fill="none" stroke="black" points="84.2106,-64.2769 73.7507,-65.962 82.9785,-71.1676 84.2106,-64.2769"/>
</g>
<!-- \\DalekRobot -->
<g id="node2" class="node"><title>\\DalekRobot</title>
<polygon fill="none" stroke="black" points="413,-106 329,-106 329,-70 413,-70 413,-106"/>
<text text-anchor="middle" x="371" y="-85.2" font-family="Courier,monospace" font-size="11.00">DalekRobot</text>
</g>
<!-- \\IDalekRobot -->
<g id="node5" class="node"><title>\\IDalekRobot</title>
<polygon fill="none" stroke="black" points="243.5,-52 152.5,-52 152.5,-16 243.5,-16 243.5,-52"/>
<text text-anchor="middle" x="198" y="-31.2" font-family="Courier,monospace" font-size="11.00">IDalekRobot</text>
</g>
<!-- \\DalekRobot&#45;&gt;\\IDalekRobot -->
<g id="edge2" class="edge"><title>\\DalekRobot&#45;&gt;\\IDalekRobot</title>
<path fill="none" stroke="black" stroke-dasharray="1,5" d="M328.606,-74.9281C306.018,-67.7953 277.776,-58.8766 253.425,-51.187"/>
<polygon fill="none" stroke="black" points="254.197,-47.7603 243.607,-48.0865 252.089,-54.4354 254.197,-47.7603"/>
</g>
<!-- \\RobotFactory -->
<g id="node3" class="node"><title>\\RobotFactory</title>
<polygon fill="none" stroke="black" points="420,-52 322,-52 322,-16 420,-16 420,-52"/>
<text text-anchor="middle" x="371" y="-31.2" font-family="Courier,monospace" font-size="11.00">RobotFactory</text>
</g>
<!-- \\IDalekRobot&#45;&gt;\\IRobot -->
<g id="edge3" class="edge"><title>\\IDalekRobot&#45;&gt;\\IRobot</title>
<path fill="none" stroke="black" d="M152.104,-42.0278C130.388,-45.9108 104.606,-50.5209 83.8939,-54.2243"/>
<polygon fill="none" stroke="black" points="83.1022,-50.8102 73.8745,-56.0158 84.3344,-57.7009 83.1022,-50.8102"/>
</g>
</g>
</svg>
