<?xml version="1.0" encoding="UTF-8" standalone="no"?>
<!DOCTYPE svg PUBLIC "-//W3C//DTD SVG 1.1//EN"
 "http://www.w3.org/Graphics/SVG/1.1/DTD/svg11.dtd">
<!-- Generated by graphviz version 2.36.0 (20140111.2315)
 -->
<!-- Title: G Pages: 1 -->
<svg width="492pt" height="338pt"
 viewBox="0.00 0.00 492.00 338.00" xmlns="http://www.w3.org/2000/svg" xmlns:xlink="http://www.w3.org/1999/xlink">
<g id="graph0" class="graph" transform="scale(1 1) rotate(0) translate(4 334)">
<title>G</title>
<polygon fill="white" stroke="none" points="-4,4 -4,-334 488,-334 488,4 -4,4"/>
<g id="clust1" class="cluster"><title>cluster_Global</title>
<path fill="none" stroke="gray" d="M20,-8C20,-8 464,-8 464,-8 470,-8 476,-14 476,-20 476,-20 476,-310 476,-310 476,-316 470,-322 464,-322 464,-322 20,-322 20,-322 14,-322 8,-316 8,-310 8,-310 8,-20 8,-20 8,-14 14,-8 20,-8"/>
<text text-anchor="middle" x="242" y="-309.2" font-family="Times,serif" font-size="11.00" fill="gray">Global</text>
</g>
<g id="clust2" class="cluster"><title>cluster_\Lzy</title>
<path fill="none" stroke="gray" d="M28,-16C28,-16 456,-16 456,-16 462,-16 468,-22 468,-28 468,-28 468,-282 468,-282 468,-288 462,-294 456,-294 456,-294 28,-294 28,-294 22,-294 16,-288 16,-282 16,-282 16,-28 16,-28 16,-22 22,-16 28,-16"/>
<text text-anchor="middle" x="242" y="-281.2" font-family="Times,serif" font-size="11.00" fill="gray">Lzy</text>
</g>
<g id="clust3" class="cluster"><title>cluster_\Lzy\DoctorWho</title>
<path fill="none" stroke="gray" d="M36,-24C36,-24 448,-24 448,-24 454,-24 460,-30 460,-36 460,-36 460,-254 460,-254 460,-260 454,-266 448,-266 448,-266 36,-266 36,-266 30,-266 24,-260 24,-254 24,-254 24,-36 24,-36 24,-30 30,-24 36,-24"/>
<text text-anchor="middle" x="242" y="-253.2" font-family="Times,serif" font-size="11.00" fill="gray">DoctorWho</text>
</g>
<g id="clust4" class="cluster"><title>cluster_\Lzy\DoctorWho\Companions</title>
<path fill="none" stroke="gray" d="M184,-166C184,-166 430,-166 430,-166 436,-166 442,-172 442,-178 442,-178 442,-226 442,-226 442,-232 436,-238 430,-238 430,-238 184,-238 184,-238 178,-238 172,-232 172,-226 172,-226 172,-178 172,-178 172,-172 178,-166 184,-166"/>
<text text-anchor="middle" x="307" y="-225.2" font-family="Times,serif" font-size="11.00" fill="gray">Companions</text>
</g>
<g id="clust5" class="cluster"><title>cluster_\Lzy\DoctorWho\Robots</title>
<path fill="none" stroke="gray" d="M44,-32C44,-32 440,-32 440,-32 446,-32 452,-38 452,-44 452,-44 452,-146 452,-146 452,-152 446,-158 440,-158 440,-158 44,-158 44,-158 38,-158 32,-152 32,-146 32,-146 32,-44 32,-44 32,-38 38,-32 44,-32"/>
<text text-anchor="middle" x="242" y="-145.2" font-family="Times,serif" font-size="11.00" fill="gray">Robots</text>
</g>
<!-- \\Lzy\\DoctorWho\\Companions\\RoseTyler -->
<g id="node1" class="node"><title>\\Lzy\\DoctorWho\\Companions\\RoseTyler</title>
<polygon fill="none" stroke="black" points="433.5,-210 356.5,-210 356.5,-174 433.5,-174 433.5,-210"/>
<text text-anchor="middle" x="395" y="-189.2" font-family="Courier,monospace" font-size="11.00">RoseTyler</text>
</g>
<!-- \\Lzy\\DoctorWho\\Companions\\ICompanion -->
<g id="node2" class="node"><title>\\Lzy\\DoctorWho\\Companions\\ICompanion</title>
<polygon fill="none" stroke="black" points="264,-210 180,-210 180,-174 264,-174 264,-210"/>
<text text-anchor="middle" x="222" y="-189.2" font-family="Courier,monospace" font-size="11.00">ICompanion</text>
</g>
<!-- \\Lzy\\DoctorWho\\Companions\\RoseTyler&#45;&gt;\\Lzy\\DoctorWho\\Companions\\ICompanion -->
<g id="edge2" class="edge"><title>\\Lzy\\DoctorWho\\Companions\\RoseTyler&#45;&gt;\\Lzy\\DoctorWho\\Companions\\ICompanion</title>
<path fill="none" stroke="black" d="M356.473,-192C332.345,-192 300.68,-192 274.248,-192"/>
<polygon fill="none" stroke="black" points="274.028,-188.5 264.028,-192 274.028,-195.5 274.028,-188.5"/>
</g>
<!-- \\Lzy\\DoctorWho\\Robots\\RobotFactory -->
<g id="node3" class="node"><title>\\Lzy\\DoctorWho\\Robots\\RobotFactory</title>
<polygon fill="none" stroke="black" points="444,-130 346,-130 346,-94 444,-94 444,-130"/>
<text text-anchor="middle" x="395" y="-109.2" font-family="Courier,monospace" font-size="11.00">RobotFactory</text>
</g>
<!-- \\Lzy\\DoctorWho\\Robots\\DalekRobot -->
<g id="node4" class="node"><title>\\Lzy\\DoctorWho\\Robots\\DalekRobot</title>
<polygon fill="none" stroke="black" points="437,-76 353,-76 353,-40 437,-40 437,-76"/>
<text text-anchor="middle" x="395" y="-55.2" font-family="Courier,monospace" font-size="11.00">DalekRobot</text>
</g>
<!-- \\Lzy\\DoctorWho\\Robots\\IDalekRobot -->
<g id="node7" class="node"><title>\\Lzy\\DoctorWho\\Robots\\IDalekRobot</title>
<polygon fill="none" stroke="black" points="267.5,-130 176.5,-130 176.5,-94 267.5,-94 267.5,-130"/>
<text text-anchor="middle" x="222" y="-109.2" font-family="Courier,monospace" font-size="11.00">IDalekRobot</text>
</g>
<!-- \\Lzy\\DoctorWho\\Robots\\DalekRobot&#45;&gt;\\Lzy\\DoctorWho\\Robots\\IDalekRobot -->
<g id="edge1" class="edge"><title>\\Lzy\\DoctorWho\\Robots\\DalekRobot&#45;&gt;\\Lzy\\DoctorWho\\Robots\\IDalekRobot</title>
<path fill="none" stroke="black" stroke-dasharray="1,5" d="M352.606,-71.0719C330.018,-78.2047 301.776,-87.1234 277.425,-94.813"/>
<polygon fill="none" stroke="black" points="276.089,-91.5646 267.607,-97.9135 278.197,-98.2397 276.089,-91.5646"/>
</g>
<!-- \\Lzy\\DoctorWho\\Robots\\CybermanRobot -->
<g id="node5" class="node"><title>\\Lzy\\DoctorWho\\Robots\\CybermanRobot</title>
<polygon fill="none" stroke="black" points="274,-76 170,-76 170,-40 274,-40 274,-76"/>
<text text-anchor="middle" x="222" y="-55.2" font-family="Courier,monospace" font-size="11.00">CybermanRobot</text>
</g>
<!-- \\Lzy\\DoctorWho\\Robots\\IRobot -->
<g id="node6" class="node"><title>\\Lzy\\DoctorWho\\Robots\\IRobot</title>
<polygon fill="none" stroke="black" points="97.5,-103 40.5,-103 40.5,-67 97.5,-67 97.5,-103"/>
<text text-anchor="middle" x="69" y="-82.2" font-family="Courier,monospace" font-size="11.00">IRobot</text>
</g>
<!-- \\Lzy\\DoctorWho\\Robots\\CybermanRobot&#45;&gt;\\Lzy\\DoctorWho\\Robots\\IRobot -->
<g id="edge3" class="edge"><title>\\Lzy\\DoctorWho\\Robots\\CybermanRobot&#45;&gt;\\Lzy\\DoctorWho\\Robots\\IRobot</title>
<path fill="none" stroke="black" stroke-dasharray="1,5" d="M169.878,-67.141C149.521,-70.7811 126.514,-74.8949 107.717,-78.2559"/>
<polygon fill="none" stroke="black" points="106.978,-74.8324 97.7507,-80.038 108.211,-81.7231 106.978,-74.8324"/>
</g>
<!-- \\Lzy\\DoctorWho\\Robots\\IDalekRobot&#45;&gt;\\Lzy\\DoctorWho\\Robots\\IRobot -->
<g id="edge4" class="edge"><title>\\Lzy\\DoctorWho\\Robots\\IDalekRobot&#45;&gt;\\Lzy\\DoctorWho\\Robots\\IRobot</title>
<path fill="none" stroke="black" d="M176.104,-103.972C154.388,-100.089 128.606,-95.4791 107.894,-91.7757"/>
<polygon fill="none" stroke="black" points="108.334,-88.2991 97.8745,-89.9842 107.102,-95.1898 108.334,-88.2991"/>
</g>
</g>
</svg>
